{
  "accessors": [
    {
      "bufferView": 0,
      "componentType": 5126,
      "count": 818,
      "max": [
        86.88490295410156,
        337.7370300292969,
        248.62042236328125
      ],
      "min": [
        -86.88488006591797,
        -0.1816300004720688,
        -248.62042236328125
      ],
      "name": "Mesh.013/POSITION",
      "type": "VEC3"
    },
    {
      "bufferView": 0,
      "byteOffset": 12,
      "componentType": 5126,
      "count": 818,
      "name": "Mesh.013/NORMAL",
      "type": "VEC3"
    },
    {
      "bufferView": 0,
      "byteOffset": 24,
      "componentType": 5126,
      "count": 818,
      "name": "Mesh.013/TEXCOORD_0",
      "type": "VEC2"
    },
    {
      "bufferView": 0,
      "byteOffset": 32,
      "componentType": 5123,
      "count": 818,
      "name": "Mesh.013/JOINTS_0",
      "type": "VEC4"
    },
    {
      "bufferView": 0,
      "byteOffset": 40,
      "componentType": 5126,
      "count": 818,
      "name": "Mesh.013/WEIGHTS_0",
      "type": "VEC4"
    },
    {
      "bufferView": 0,
      "byteOffset": 56,
      "componentType": 5123,
      "count": 818,
      "name": "Mesh.013/JOINTS_1",
      "type": "VEC4"
    },
    {
      "bufferView": 0,
      "byteOffset": 64,
      "componentType": 5126,
      "count": 818,
      "name": "Mesh.013/WEIGHTS_1",
      "type": "VEC4"
    },
    {
      "bufferView": 1,
      "componentType": 5123,
      "count": 3234,
      "name": "Mesh.013/INDICES",
      "type": "SCALAR"
    },
    {
      "bufferView": 2,
      "componentType": 5126,
      "count": 27,
      "name": "/InverseBindMatrices",
      "type": "MAT4"
    }
  ],
  "asset": {
    "copyright": "Copyright (c) 2018-2020 Chukong Technologies Inc.",
    "generator": "FBX-glTF-conv",
    "version": "2.0"
  },
  "bufferViews": [
    {
      "buffer": 0,
      "byteLength": 65440,
      "byteStride": 80,
      "name": "Mesh.013",
      "target": 34962
    },
    {
      "buffer": 0,
      "byteLength": 6468,
      "byteOffset": 65440,
      "target": 34963
    },
    {
      "buffer": 0,
      "byteLength": 1728,
      "byteOffset": 71908
    }
  ],
  "buffers": [
    {
      "byteLength": 73636,
      "uri": "out.bin"
    }
  ],
  "extras": {
    "FBX-glTF-conv": {
      "animationFrameRate": 24.0,
      "fbxFileHeaderInfo": {
        "creationTimeStamp": {
          "day": 15,
          "hour": 18,
          "millisecond": 471,
          "minute": 32,
          "month": 5,
          "second": 51,
          "year": 2026
        },
        "creator": "Blender (stable FBX IO) - 4.5.2 LTS - 5.13.0",
        "sceneInfo": {
          "author": "",
          "comment": "",
          "keywords": "",
          "original": {
            "applicationName": "Blender (stable FBX IO)",
            "applicationVendor": "Blender Foundation",
            "applicationVersion": "4.5.2 LTS",
            "fileName": "/foobar.fbx"
          },
          "revision": "",
          "subject": "",
          "title": "",
          "url": "D:\\Works\\Github\\BattleGame\\assets\\3D\\Fighter.Body.low_Baked.001_vat\\Untitled.fbx"
        }
      }
    }
  },
  "materials": [
    {
      "extras": {
        "FBX-glTF-conv": {
          "raw": {
            "properties": {
              "ambient": {
                "value": [
                  0.05087608844041824,
                  0.05087608844041824,
                  0.05087608844041824
                ]
              },
              "ambientFactor": {
                "value": 0.0
              },
              "bump": {
                "value": [
                  0.0,
                  0.0,
                  0.0
                ]
              },
              "bumpFactor": {
                "value": 0.0
              },
              "diffuse": {
                "value": [
                  0.800000011920929,
                  0.800000011920929,
                  0.800000011920929
                ]
              },
              "diffuseFactor": {
                "value": 1.0
              },
              "displacementColor": {
                "value": [
                  0.0,
                  0.0,
                  0.0
                ]
              },
              "displacementFactor": {
                "value": 1.0
              },
              "emissive": {
                "value": [
                  1.0,
                  1.0,
                  1.0
                ]
              },
              "emissiveFactor": {
                "value": 0.0
              },
              "normalMap": {
                "value": [
                  0.0,
                  0.0,
                  0.0
                ]
              },
              "reflection": {
                "value": [
                  0.800000011920929,
                  0.800000011920929,
                  0.800000011920929
                ]
              },
              "reflectionFactor": {
                "value": 0.0
              },
              "shadingModel": "Phong",
              "shininess": {
                "value": 25.0
              },
              "specular": {
                "value": [
                  0.800000011920929,
                  0.800000011920929,
                  0.800000011920929
                ]
              },
              "specularFactor": {
                "value": 0.25
              },
              "transparencyFactor": {
                "value": 0.0
              },
              "transparentColor": {
                "value": [
                  0.0,
                  0.0,
                  0.0
                ]
              },
              "vectorDisplacementColor": {
                "value": [
                  0.0,
                  0.0,
                  0.0
                ]
              },
              "vectorDisplacementFactor": {
                "value": 1.0
              }
            },
            "type": "phong"
          }
        }
      },
      "name": "dog_Mat.004"
    }
  ],
  "meshes": [
    {
      "name": "Mesh.013",
      "primitives": [
        {
          "attributes": {
            "JOINTS_0": 3,
            "JOINTS_1": 5,
            "NORMAL": 1,
            "POSITION": 0,
            "TEXCOORD_0": 2,
            "WEIGHTS_0": 4,
            "WEIGHTS_1": 6
          },
          "indices": 7,
          "material": 0
        }
      ]
    }
  ],
  "nodes": [
    {
      "children": [
        1,
        3
      ],
      "name": "Armature.008",
      "scale": [
        0.009999999776482582,
        0.009999999776482582,
        0.009999999776482582
      ]
    },
    {
      "children": [
        2
      ],
      "name": "dog_grp.003"
    },
    {
      "mesh": 0,
      "name": "dog_geo.002",
      "scale": [
        0.009999999776482582,
        0.009999999776482582,
        0.009999999776482582
      ],
      "skin": 0,
      "translation": [
        -6.041588895833172e-10,
        -2.2684538691919442e-09,
        1.3036051882409083e-07
      ]
    },
    {
      "children": [
        4,
        20,
        22,
        26
      ],
      "extras": {
        "FBX-glTF-conv": {
          "skeleton": {
            "skeletonType": "LimbNode"
          }
        }
      },
      "name": "Root_M",
      "rotation": [
        0.5023158192634583,
        -0.5023135542869568,
        0.49767571687698364,
        0.497673362493515
      ],
      "translation": [
        -6.473145587257423e-13,
        174.1812744140625,
        -128.13133239746094
      ]
    },
    {
      "children": [
        5
      ],
      "extras": {
        "FBX-glTF-conv": {
          "skeleton": {
            "skeletonType": "LimbNode"
          }
        }
      },
      "name": "Spine1_M",
      "rotation": [
        -0.5076726078987122,
        -0.49220797419548035,
        -0.49221089482307434,
        0.5076694488525391
      ],
      "scale": [
        0.9999998807907104,
        0.9999997615814209,
        0.9999999403953552
      ],
      "translation": [
        49.670982360839844,
        -1.3642419442391751e-12,
        -5.3644171202904545e-06
      ]
    },
    {
      "children": [
        6,
        10,
        15
      ],
      "extras": {
        "FBX-glTF-conv": {
          "skeleton": {
            "skeletonType": "LimbNode"
          }
        }
      },
      "name": "Chest_M",
      "rotation": [
        -1.785376646523673e-08,
        -5.452791285165404e-08,
        0.03604325279593468,
        0.9993502497673035
      ],
      "scale": [
        0.9999999403953552,
        1.0,
        1.0
      ],
      "translation": [
        -1.010298637993401e-05,
        62.61481857299805,
        2.2656888631900074e-06
      ]
    },
    {
      "children": [
        7
      ],
      "extras": {
        "FBX-glTF-conv": {
          "skeleton": {
            "skeletonType": "LimbNode"
          }
        }
      },
      "name": "Neck_M",
      "rotation": [
        1.0529819860494172e-07,
        6.853442613419247e-08,
        0.2824392020702362,
        0.9592851996421814
      ],
      "scale": [
        0.9999999403953552,
        0.9999999403953552,
        1.0000001192092896
      ],
      "translation": [
        7.572846412658691,
        37.72665786743164,
        2.9197774438216584e-06
      ]
    },
    {
      "children": [
        8,
        9
      ],
      "extras": {
        "FBX-glTF-conv": {
          "skeleton": {
            "skeletonType": "LimbNode"
          }
        }
      },
      "name": "Head_M",
      "rotation": [
        0.5624909400939941,
        0.82680344581604,
        3.824816374731199e-08,
        -6.529200646809841e-08
      ],
      "scale": [
        1.0000001192092896,
        1.0,
        1.0
      ],
      "translation": [
        -2.288818359375e-05,
        35.54080581665039,
        -3.126503997918917e-06
      ]
    },
    {
      "extras": {
        "FBX-glTF-conv": {
          "skeleton": {
            "skeletonType": "LimbNode"
          }
        }
      },
      "name": "Jaw_M",
      "rotation": [
        -6.934808283176608e-08,
        -5.166748806573196e-08,
        0.775546669960022,
        0.6312902569770813
      ],
      "scale": [
        1.0000001192092896,
        1.0,
        1.0
      ],
      "translation": [
        -10.53302001953125,
        38.63554000854492,
        -1.8039172573480755e-06
      ]
    },
    {
      "extras": {
        "FBX-glTF-conv": {
          "skeleton": {
            "skeletonType": "LimbNode"
          }
        }
      },
      "name": "Nose_M",
      "rotation": [
        0.9830156564712524,
        0.1835218369960785,
        7.461251527729473e-08,
        -9.073195172959458e-08
      ],
      "scale": [
        0.9999989867210388,
        0.9999998211860657,
        1.0
      ],
      "translation": [
        77.4456558227539,
        98.00926971435547,
        1.326354504271876e-05
      ]
    },
    {
      "children": [
        11
      ],
      "extras": {
        "FBX-glTF-conv": {
          "skeleton": {
            "skeletonType": "LimbNode"
          }
        }
      },
      "name": "Scapula_R",
      "rotation": [
        0.3752864599227905,
        0.8721644878387451,
        0.28827524185180664,
        0.12404265999794006
      ],
      "scale": [
        1.0,
        0.9999997615814209,
        1.0000001192092896
      ],
      "translation": [
        22.25755500793457,
        9.0404052734375,
        31.984241485595703
      ]
    },
    {
      "children": [
        12
      ],
      "extras": {
        "FBX-glTF-conv": {
          "skeleton": {
            "skeletonType": "LimbNode"
          }
        }
      },
      "name": "Shoulder_R",
      "rotation": [
        0.24384674429893494,
        -0.19755516946315765,
        0.5976943373680115,
        0.7377480268478394
      ],
      "scale": [
        1.000000238418579,
        1.0,
        0.9999998807907104
      ],
      "translation": [
        3.3433472708566114e-05,
        59.90135955810547,
        1.52587890625e-05
      ]
    },
    {
      "children": [
        13
      ],
      "extras": {
        "FBX-glTF-conv": {
          "skeleton": {
            "skeletonType": "LimbNode"
          }
        }
      },
      "name": "Elbow_R",
      "rotation": [
        -4.0198578687977715e-08,
        4.465122742658423e-07,
        -0.4105282425880432,
        0.9118478894233704
      ],
      "scale": [
        0.9999999403953552,
        0.9999999403953552,
        0.9999999403953552
      ],
      "translation": [
        -1.5763578630867414e-05,
        61.15431213378906,
        6.076774639041105e-08
      ]
    },
    {
      "children": [
        14
      ],
      "extras": {
        "FBX-glTF-conv": {
          "skeleton": {
            "skeletonType": "LimbNode"
          }
        }
      },
      "name": "Wrist_R",
      "rotation": [
        2.093017599236191e-07,
        -9.314906037616311e-07,
        -0.13174857199192047,
        0.9912831783294678
      ],
      "scale": [
        1.0000001192092896,
        0.9999998211860657,
        1.0000001192092896
      ],
      "translation": [
        2.3951979528646916e-06,
        36.25674057006836,
        -1.1717966117430478e-05
      ]
    },
    {
      "extras": {
        "FBX-glTF-conv": {
          "skeleton": {
            "skeletonType": "LimbNode"
          }
        }
      },
      "name": "Fingers1_R",
      "rotation": [
        -3.600493130306859e-07,
        4.2503012309680344e-07,
        -0.46639594435691833,
        0.8845760822296143
      ],
      "scale": [
        1.0000001192092896,
        0.9999998211860657,
        0.9999998211860657
      ],
      "translation": [
        7.092166924849153e-07,
        22.091289520263672,
        -3.208300768164918e-06
      ]
    },
    {
      "children": [
        16
      ],
      "extras": {
        "FBX-glTF-conv": {
          "skeleton": {
            "skeletonType": "LimbNode"
          }
        }
      },
      "name": "Scapula_L",
      "rotation": [
        -0.28827521204948425,
        0.12404277175664902,
        -0.3752862811088562,
        0.8721645474433899
      ],
      "scale": [
        0.9999999403953552,
        1.0000001192092896,
        1.0000001192092896
      ],
      "translation": [
        22.257558822631836,
        9.040410041809082,
        -31.98424530029297
      ]
    },
    {
      "children": [
        17
      ],
      "extras": {
        "FBX-glTF-conv": {
          "skeleton": {
            "skeletonType": "LimbNode"
          }
        }
      },
      "name": "Shoulder_L",
      "rotation": [
        0.24384649097919464,
        0.1975553035736084,
        -0.5976946353912354,
        0.737747848033905
      ],
      "scale": [
        1.000000238418579,
        1.0000001192092896,
        1.0000001192092896
      ],
      "translation": [
        -5.5706186685711145e-06,
        59.90134811401367,
        -2.86102294921875e-06
      ]
    },
    {
      "children": [
        18
      ],
      "extras": {
        "FBX-glTF-conv": {
          "skeleton": {
            "skeletonType": "LimbNode"
          }
        }
      },
      "name": "Elbow_L",
      "rotation": [
        8.571336707063892e-08,
        -1.8341147267619817e-07,
        0.4105285406112671,
        0.9118477702140808
      ],
      "scale": [
        1.0000001192092896,
        1.0,
        0.9999997615814209
      ],
      "translation": [
        -9.031085937749594e-06,
        61.15431213378906,
        1.123175479733618e-05
      ]
    },
    {
      "children": [
        19
      ],
      "extras": {
        "FBX-glTF-conv": {
          "skeleton": {
            "skeletonType": "LimbNode"
          }
        }
      },
      "name": "Wrist_L",
      "rotation": [
        1.6304118943821777e-08,
        -5.934241542604468e-08,
        0.13174816966056824,
        0.9912832379341125
      ],
      "scale": [
        0.9999996423721313,
        1.0000001192092896,
        1.0000001192092896
      ],
      "translation": [
        5.354049790184945e-07,
        36.256744384765625,
        -3.4527649859228404e-06
      ]
    },
    {
      "extras": {
        "FBX-glTF-conv": {
          "skeleton": {
            "skeletonType": "LimbNode"
          }
        }
      },
      "name": "Fingers1_L",
      "rotation": [
        1.8267738255417498e-07,
        5.528504516405519e-07,
        0.46639639139175415,
        0.8845758438110352
      ],
      "scale": [
        0.9999998807907104,
        1.0000001192092896,
        0.9999997615814209
      ],
      "translation": [
        -1.3823282642988488e-06,
        22.09129524230957,
        3.3146111491078045e-06
      ]
    },
    {
      "children": [
        21
      ],
      "extras": {
        "FBX-glTF-conv": {
          "skeleton": {
            "skeletonType": "LimbNode"
          }
        }
      },
      "name": "Tail0_M",
      "rotation": [
        -0.24695977568626404,
        0.6625789999961853,
        -0.6625788807868958,
        -0.24695985019207
      ],
      "scale": [
        0.9999999403953552,
        0.9999999403953552,
        0.9999999403953552
      ],
      "translation": [
        -35.863075256347656,
        -6.59383658785373e-12,
        -4.435915946960449
      ]
    },
    {
      "extras": {
        "FBX-glTF-conv": {
          "skeleton": {
            "skeletonType": "LimbNode"
          }
        }
      },
      "name": "Tail1_M",
      "rotation": [
        -1.6437238237188012e-09,
        -4.031898370726594e-08,
        0.543721616268158,
        0.8392656445503235
      ],
      "scale": [
        1.0000001192092896,
        1.000000238418579,
        1.0
      ],
      "translation": [
        4.768367944052443e-06,
        61.33607482910156,
        6.279088665905874e-06
      ]
    },
    {
      "children": [
        23
      ],
      "extras": {
        "FBX-glTF-conv": {
          "skeleton": {
            "skeletonType": "LimbNode"
          }
        }
      },
      "name": "Hip_R",
      "rotation": [
        0.7005887627601624,
        0.0957888588309288,
        -0.0957888662815094,
        0.700588583946228
      ],
      "scale": [
        1.0,
        0.9999999403953552,
        1.0
      ],
      "translation": [
        -13.114374160766602,
        50.85036087036133,
        29.305809020996094
      ]
    },
    {
      "children": [
        24
      ],
      "extras": {
        "FBX-glTF-conv": {
          "skeleton": {
            "skeletonType": "LimbNode"
          }
        }
      },
      "name": "Knee_R",
      "rotation": [
        -1.0278458262291679e-07,
        -2.739634119564016e-08,
        0.47270020842552185,
        0.8812233209609985
      ],
      "scale": [
        0.9999996423721313,
        0.9999998211860657,
        1.0
      ],
      "translation": [
        -1.0129781458090292e-06,
        55.98407745361328,
        -3.7468798836926e-06
      ]
    },
    {
      "children": [
        25
      ],
      "extras": {
        "FBX-glTF-conv": {
          "skeleton": {
            "skeletonType": "LimbNode"
          }
        }
      },
      "name": "Ankle_R",
      "rotation": [
        6.956735205676523e-07,
        1.771075062606542e-06,
        -0.3883416950702667,
        0.9215154647827148
      ],
      "scale": [
        1.0000003576278687,
        1.0000001192092896,
        1.0000001192092896
      ],
      "translation": [
        3.1356894396594726e-06,
        76.38240051269531,
        1.2047321433783509e-06
      ]
    },
    {
      "extras": {
        "FBX-glTF-conv": {
          "skeleton": {
            "skeletonType": "LimbNode"
          }
        }
      },
      "name": "Toes1_R",
      "rotation": [
        1.376545128550788e-06,
        -1.1938158195334836e-06,
        -0.6799360513687134,
        0.7332714200019836
      ],
      "scale": [
        0.9999999403953552,
        1.0000003576278687,
        0.9999998211860657
      ],
      "translation": [
        1.4681092579849064e-05,
        20.428421020507813,
        -4.3457482945541415e-08
      ]
    },
    {
      "children": [
        27
      ],
      "extras": {
        "FBX-glTF-conv": {
          "skeleton": {
            "skeletonType": "LimbNode"
          }
        }
      },
      "name": "Hip_L",
      "rotation": [
        0.09578890353441238,
        0.7005887627601624,
        0.700588583946228,
        -0.09578875452280045
      ],
      "scale": [
        1.0,
        1.0000001192092896,
        1.0
      ],
      "translation": [
        -13.114378929138184,
        -50.850372314453125,
        29.305809020996094
      ]
    },
    {
      "children": [
        28
      ],
      "extras": {
        "FBX-glTF-conv": {
          "skeleton": {
            "skeletonType": "LimbNode"
          }
        }
      },
      "name": "Knee_L",
      "rotation": [
        -1.3763040840331087e-07,
        -1.1437565916594394e-07,
        -0.4727000892162323,
        0.8812233805656433
      ],
      "scale": [
        0.9999998211860657,
        0.9999998211860657,
        1.0
      ],
      "translation": [
        -3.664522409962956e-06,
        55.98412322998047,
        -5.016583600081503e-06
      ]
    },
    {
      "children": [
        29
      ],
      "extras": {
        "FBX-glTF-conv": {
          "skeleton": {
            "skeletonType": "LimbNode"
          }
        }
      },
      "name": "Ankle_L",
      "rotation": [
        -7.896654210526322e-07,
        2.2330468709697016e-06,
        0.3883410096168518,
        0.9215157628059387
      ],
      "scale": [
        1.0,
        1.0000003576278687,
        1.0
      ],
      "translation": [
        -7.973566425789613e-06,
        76.3824234008789,
        -6.005075192661025e-07
      ]
    },
    {
      "extras": {
        "FBX-glTF-conv": {
          "skeleton": {
            "skeletonType": "LimbNode"
          }
        }
      },
      "name": "Toes1_L",
      "rotation": [
        -1.456487780160387e-06,
        -1.5949673297654954e-06,
        0.6799365282058716,
        0.7332709431648254
      ],
      "scale": [
        1.000000238418579,
        1.0000003576278687,
        1.0
      ],
      "translation": [
        -7.315815309993923e-06,
        20.428375244140625,
        7.2452621679985896e-06
      ]
    }
  ],
  "scenes": [
    {
      "name": "Scene",
      "nodes": [
        0
      ]
    }
  ],
  "skins": [
    {
      "inverseBindMatrices": 8,
      "joints": [
        3,
        4,
        5,
        6,
        7,
        8,
        9,
        10,
        11,
        12,
        13,
        14,
        15,
        16,
        17,
        18,
        19,
        20,
        21,
        22,
        23,
        24,
        25,
        26,
        27,
        28,
        29
      ]
    }
  ]
}