{
  "accessors": [
    {
      "bufferView": 0,
      "componentType": 5126,
      "count": 818,
      "max": [
        0.8688490390777588,
        3.3773703575134277,
        2.486204147338867
      ],
      "min": [
        -0.8688488006591797,
        -0.0018162999767810106,
        -2.486204147338867
      ],
      "name": "Mesh/POSITION",
      "type": "VEC3"
    },
    {
      "bufferView": 0,
      "byteOffset": 12,
      "componentType": 5126,
      "count": 818,
      "name": "Mesh/NORMAL",
      "type": "VEC3"
    },
    {
      "bufferView": 0,
      "byteOffset": 24,
      "componentType": 5126,
      "count": 818,
      "name": "Mesh/TEXCOORD_0",
      "type": "VEC2"
    },
    {
      "bufferView": 0,
      "byteOffset": 32,
      "componentType": 5123,
      "count": 818,
      "name": "Mesh/JOINTS_0",
      "type": "VEC4"
    },
    {
      "bufferView": 0,
      "byteOffset": 40,
      "componentType": 5126,
      "count": 818,
      "name": "Mesh/WEIGHTS_0",
      "type": "VEC4"
    },
    {
      "bufferView": 0,
      "byteOffset": 56,
      "componentType": 5123,
      "count": 818,
      "name": "Mesh/JOINTS_1",
      "type": "VEC4"
    },
    {
      "bufferView": 0,
      "byteOffset": 64,
      "componentType": 5126,
      "count": 818,
      "name": "Mesh/WEIGHTS_1",
      "type": "VEC4"
    },
    {
      "bufferView": 1,
      "componentType": 5123,
      "count": 3234,
      "name": "Mesh/INDICES",
      "type": "SCALAR"
    },
    {
      "bufferView": 2,
      "componentType": 5126,
      "count": 27,
      "name": "/InverseBindMatrices",
      "type": "MAT4"
    }
  ],
  "asset": {
    "copyright": "Copyright (c) 2018-2020 Chukong Technologies Inc.",
    "generator": "FBX-glTF-conv",
    "version": "2.0"
  },
  "bufferViews": [
    {
      "buffer": 0,
      "byteLength": 65440,
      "byteStride": 80,
      "name": "Mesh",
      "target": 34962
    },
    {
      "buffer": 0,
      "byteLength": 6468,
      "byteOffset": 65440,
      "target": 34963
    },
    {
      "buffer": 0,
      "byteLength": 1728,
      "byteOffset": 71908
    }
  ],
  "buffers": [
    {
      "byteLength": 73636,
      "uri": "out.bin"
    }
  ],
  "extras": {
    "FBX-glTF-conv": {
      "animationFrameRate": 24.0,
      "fbxFileHeaderInfo": {
        "creationTimeStamp": {
          "day": 15,
          "hour": 18,
          "millisecond": 786,
          "minute": 41,
          "month": 5,
          "second": 7,
          "year": 2026
        },
        "creator": "Blender (stable FBX IO) - 4.5.2 LTS - 5.13.0",
        "sceneInfo": {
          "author": "",
          "comment": "",
          "keywords": "",
          "original": {
            "applicationName": "Blender (stable FBX IO)",
            "applicationVendor": "Blender Foundation",
            "applicationVersion": "4.5.2 LTS",
            "fileName": "/foobar.fbx"
          },
          "revision": "",
          "subject": "",
          "title": "",
          "url": "F:\\Github\\BattleGame\\assets\\3D\\Fighter.Body.low_Baked.001_vat\\1989_dog.fbx"
        }
      }
    }
  },
  "materials": [
    {
      "extras": {
        "FBX-glTF-conv": {
          "raw": {
            "properties": {
              "ambient": {
                "value": [
                  0.0,
                  0.0,
                  0.0
                ]
              },
              "ambientFactor": {
                "value": 0.0
              },
              "bump": {
                "value": [
                  0.0,
                  0.0,
                  0.0
                ]
              },
              "bumpFactor": {
                "value": 0.0
              },
              "diffuse": {
                "value": [
                  0.800000011920929,
                  0.800000011920929,
                  0.800000011920929
                ]
              },
              "diffuseFactor": {
                "value": 1.0
              },
              "displacementColor": {
                "value": [
                  0.0,
                  0.0,
                  0.0
                ]
              },
              "displacementFactor": {
                "value": 1.0
              },
              "emissive": {
                "value": [
                  1.0,
                  1.0,
                  1.0
                ]
              },
              "emissiveFactor": {
                "value": 0.0
              },
              "normalMap": {
                "value": [
                  0.0,
                  0.0,
                  0.0
                ]
              },
              "reflection": {
                "value": [
                  0.800000011920929,
                  0.800000011920929,
                  0.800000011920929
                ]
              },
              "reflectionFactor": {
                "value": 0.0
              },
              "shadingModel": "Phong",
              "shininess": {
                "value": 25.0
              },
              "specular": {
                "value": [
                  0.800000011920929,
                  0.800000011920929,
                  0.800000011920929
                ]
              },
              "specularFactor": {
                "value": 0.25
              },
              "transparencyFactor": {
                "value": 0.0
              },
              "transparentColor": {
                "value": [
                  0.0,
                  0.0,
                  0.0
                ]
              },
              "vectorDisplacementColor": {
                "value": [
                  0.0,
                  0.0,
                  0.0
                ]
              },
              "vectorDisplacementFactor": {
                "value": 1.0
              }
            },
            "type": "phong"
          }
        }
      },
      "name": "dog_Mat"
    }
  ],
  "meshes": [
    {
      "name": "Mesh",
      "primitives": [
        {
          "attributes": {
            "JOINTS_0": 3,
            "JOINTS_1": 5,
            "NORMAL": 1,
            "POSITION": 0,
            "TEXCOORD_0": 2,
            "WEIGHTS_0": 4,
            "WEIGHTS_1": 6
          },
          "indices": 7,
          "material": 0
        }
      ]
    }
  ],
  "nodes": [
    {
      "children": [
        1,
        3
      ],
      "name": "Armature"
    },
    {
      "children": [
        2
      ],
      "name": "dog_grp"
    },
    {
      "mesh": 0,
      "name": "dog_geo",
      "skin": 0,
      "translation": [
        -7.116863542933061e-09,
        -1.8075589913735257e-09,
        1.0557641871855594e-07
      ]
    },
    {
      "children": [
        4,
        20,
        22,
        26
      ],
      "extras": {
        "FBX-glTF-conv": {
          "skeleton": {
            "skeletonType": "LimbNode"
          }
        }
      },
      "name": "Root_M",
      "rotation": [
        0.7070991396903992,
        -0.0032811779528856277,
        0.707099199295044,
        -0.003280947683379054
      ],
      "scale": [
        1.0,
        1.0000001192092896,
        1.0000001192092896
      ],
      "translation": [
        -1.925672230858712e-15,
        1.7418125867843628,
        -1.2813133001327515
      ]
    },
    {
      "children": [
        5
      ],
      "extras": {
        "FBX-glTF-conv": {
          "skeleton": {
            "skeletonType": "LimbNode"
          }
        }
      },
      "name": "Spine1_M",
      "rotation": [
        1.5214460247214845e-10,
        -3.402530168727935e-08,
        -0.015461670234799385,
        0.9998804330825806
      ],
      "scale": [
        0.9999999403953552,
        0.9999999403953552,
        1.0
      ],
      "translation": [
        0.4967097342014313,
        -9.238719655968453e-08,
        1.5977875023054366e-08
      ]
    },
    {
      "children": [
        6,
        10,
        15
      ],
      "extras": {
        "FBX-glTF-conv": {
          "skeleton": {
            "skeletonType": "LimbNode"
          }
        }
      },
      "name": "Chest_M",
      "rotation": [
        -2.4805675291617035e-09,
        -3.326755404486903e-08,
        -0.036043185740709305,
        0.9993502497673035
      ],
      "scale": [
        0.9999998807907104,
        0.9999998211860657,
        1.0
      ],
      "translation": [
        0.6261482238769531,
        4.857778534983481e-08,
        -2.265685417057739e-08
      ]
    },
    {
      "children": [
        7
      ],
      "extras": {
        "FBX-glTF-conv": {
          "skeleton": {
            "skeletonType": "LimbNode"
          }
        }
      },
      "name": "Neck_M",
      "rotation": [
        -1.9662906858286533e-09,
        9.127544586817748e-08,
        -0.282439261674881,
        0.9592851996421814
      ],
      "translation": [
        0.3772664964199066,
        0.07572828978300095,
        -3.8523157996905866e-08
      ]
    },
    {
      "children": [
        8,
        9
      ],
      "extras": {
        "FBX-glTF-conv": {
          "skeleton": {
            "skeletonType": "LimbNode"
          }
        }
      },
      "name": "Head_M",
      "rotation": [
        1.5517112927909693e-08,
        -5.071733699679726e-09,
        -0.18689705431461334,
        0.9823794960975647
      ],
      "scale": [
        0.9999999403953552,
        1.0,
        1.0
      ],
      "translation": [
        0.35540786385536194,
        -1.9073486612342094e-07,
        3.126512027051831e-08
      ]
    },
    {
      "extras": {
        "FBX-glTF-conv": {
          "skeleton": {
            "skeletonType": "LimbNode"
          }
        }
      },
      "name": "Jaw_M",
      "rotation": [
        -3.2474272160243345e-08,
        -2.2719804704252056e-08,
        0.7755464911460876,
        0.6312904357910156
      ],
      "scale": [
        0.9999999403953552,
        0.9999999403953552,
        1.0
      ],
      "translation": [
        -0.10533039271831512,
        0.38635554909706116,
        -8.201263668183856e-09
      ]
    },
    {
      "extras": {
        "FBX-glTF-conv": {
          "skeleton": {
            "skeletonType": "LimbNode"
          }
        }
      },
      "name": "Nose_M",
      "rotation": [
        0.9830155968666077,
        0.18352192640304565,
        -1.4109268420270382e-08,
        -7.416824132633337e-08
      ],
      "scale": [
        1.0000011920928955,
        1.0000001192092896,
        1.0
      ],
      "translation": [
        0.7744559645652771,
        0.9800921678543091,
        6.030087007502516e-08
      ]
    },
    {
      "children": [
        11
      ],
      "extras": {
        "FBX-glTF-conv": {
          "skeleton": {
            "skeletonType": "LimbNode"
          }
        }
      },
      "name": "Scapula_R",
      "rotation": [
        0.8721644282341003,
        0.37528643012046814,
        -0.2882753014564514,
        0.12404272705316544
      ],
      "scale": [
        1.000000238418579,
        1.000000238418579,
        1.0000001192092896
      ],
      "translation": [
        0.09040407091379166,
        0.22257545590400696,
        -0.3198423981666565
      ]
    },
    {
      "children": [
        12
      ],
      "extras": {
        "FBX-glTF-conv": {
          "skeleton": {
            "skeletonType": "LimbNode"
          }
        }
      },
      "name": "Shoulder_R",
      "rotation": [
        -0.1975550502538681,
        0.24384672939777374,
        -0.5976943373680115,
        0.7377480864524841
      ],
      "scale": [
        0.9999998807907104,
        1.0000001192092896,
        0.9999999403953552
      ],
      "translation": [
        0.5990134477615356,
        3.1965100788511336e-07,
        -1.4305115314527939e-07
      ]
    },
    {
      "children": [
        13
      ],
      "extras": {
        "FBX-glTF-conv": {
          "skeleton": {
            "skeletonType": "LimbNode"
          }
        }
      },
      "name": "Elbow_R",
      "rotation": [
        5.977866379680563e-08,
        -6.68414079640911e-09,
        0.4105282425880432,
        0.9118478894233704
      ],
      "scale": [
        0.9999999403953552,
        1.0,
        1.0000001192092896
      ],
      "translation": [
        0.6115429401397705,
        -1.3765561845957563e-07,
        -2.749242256072648e-08
      ]
    },
    {
      "children": [
        14
      ],
      "extras": {
        "FBX-glTF-conv": {
          "skeleton": {
            "skeletonType": "LimbNode"
          }
        }
      },
      "name": "Wrist_R",
      "rotation": [
        2.424140710388656e-08,
        7.190712913995867e-09,
        0.13174833357334137,
        0.9912831783294678
      ],
      "scale": [
        1.0000001192092896,
        1.0000001192092896,
        1.0
      ],
      "translation": [
        0.36256712675094604,
        1.716145874297581e-07,
        -1.2622602696410468e-07
      ]
    },
    {
      "extras": {
        "FBX-glTF-conv": {
          "skeleton": {
            "skeletonType": "LimbNode"
          }
        }
      },
      "name": "Fingers1_R",
      "rotation": [
        5.214307563505827e-08,
        5.7447959278533745e-08,
        0.46639618277549744,
        0.8845759630203247
      ],
      "scale": [
        0.9999999403953552,
        0.9999998807907104,
        1.0
      ],
      "translation": [
        0.22091278433799744,
        -2.3132269433290276e-09,
        -1.6364629118470475e-07
      ]
    },
    {
      "children": [
        16
      ],
      "extras": {
        "FBX-glTF-conv": {
          "skeleton": {
            "skeletonType": "LimbNode"
          }
        }
      },
      "name": "Scapula_L",
      "rotation": [
        -0.3752862811088562,
        0.8721645474433899,
        0.12404283881187439,
        0.28827521204948425
      ],
      "scale": [
        1.0000001192092896,
        1.000000238418579,
        1.0000001192092896
      ],
      "translation": [
        0.09040416032075882,
        0.22257544100284576,
        0.3198423981666565
      ]
    },
    {
      "children": [
        17
      ],
      "extras": {
        "FBX-glTF-conv": {
          "skeleton": {
            "skeletonType": "LimbNode"
          }
        }
      },
      "name": "Shoulder_L",
      "rotation": [
        -0.1975550353527069,
        0.2438466101884842,
        -0.5976945161819458,
        0.7377479672431946
      ],
      "scale": [
        0.9999998807907104,
        1.0,
        1.0
      ],
      "translation": [
        -0.5990135073661804,
        2.670288097306184e-07,
        1.335144048653092e-07
      ]
    },
    {
      "children": [
        18
      ],
      "extras": {
        "FBX-glTF-conv": {
          "skeleton": {
            "skeletonType": "LimbNode"
          }
        }
      },
      "name": "Elbow_L",
      "rotation": [
        1.849230635286858e-08,
        7.521062883597551e-08,
        0.41052842140197754,
        0.9118477702140808
      ],
      "scale": [
        0.9999998807907104,
        0.9999998807907104,
        1.0
      ],
      "translation": [
        -0.6115428805351257,
        -2.6042290102168408e-08,
        4.0086266750449795e-08
      ]
    },
    {
      "children": [
        19
      ],
      "extras": {
        "FBX-glTF-conv": {
          "skeleton": {
            "skeletonType": "LimbNode"
          }
        }
      },
      "name": "Wrist_L",
      "rotation": [
        -7.692354309085658e-09,
        1.5741800751811752e-08,
        0.13174821436405182,
        0.9912832379341125
      ],
      "scale": [
        0.9999998807907104,
        0.9999998211860657,
        0.9999998807907104
      ],
      "translation": [
        -0.3625672161579132,
        -7.565423487676526e-08,
        7.596632656259317e-08
      ]
    },
    {
      "extras": {
        "FBX-glTF-conv": {
          "skeleton": {
            "skeletonType": "LimbNode"
          }
        }
      },
      "name": "Fingers1_L",
      "rotation": [
        -5.077390952124006e-08,
        3.060392828047043e-08,
        0.4663962721824646,
        0.8845759034156799
      ],
      "scale": [
        1.0000001192092896,
        0.9999999403953552,
        1.0
      ],
      "translation": [
        -0.2209128439426422,
        4.6425949307149494e-08,
        8.02854174253298e-08
      ]
    },
    {
      "children": [
        21
      ],
      "extras": {
        "FBX-glTF-conv": {
          "skeleton": {
            "skeletonType": "LimbNode"
          }
        }
      },
      "name": "Tail0_M",
      "rotation": [
        -0.41561904549598694,
        0.9095388054847717,
        2.670982190977611e-08,
        7.080158326289165e-08
      ],
      "scale": [
        0.9999998807907104,
        0.9999995827674866,
        1.0
      ],
      "translation": [
        -0.3586306869983673,
        -0.04435938969254494,
        -1.2652301428772716e-08
      ]
    },
    {
      "extras": {
        "FBX-glTF-conv": {
          "skeleton": {
            "skeletonType": "LimbNode"
          }
        }
      },
      "name": "Tail1_M",
      "rotation": [
        -5.1360714792281215e-08,
        2.001051413458299e-08,
        -0.543721616268158,
        0.8392656445503235
      ],
      "scale": [
        1.0,
        1.0000001192092896,
        0.9999999403953552
      ],
      "translation": [
        0.613360583782196,
        6.67572024326546e-08,
        -6.27908889327955e-08
      ]
    },
    {
      "children": [
        23
      ],
      "extras": {
        "FBX-glTF-conv": {
          "skeleton": {
            "skeletonType": "LimbNode"
          }
        }
      },
      "name": "Hip_R",
      "rotation": [
        0.7963775396347046,
        0.6047998070716858,
        8.047187805004796e-08,
        3.368819179172533e-08
      ],
      "scale": [
        1.0,
        0.9999998807907104,
        1.0
      ],
      "translation": [
        -0.13114367425441742,
        0.2930578887462616,
        -0.5085036158561707
      ]
    },
    {
      "children": [
        24
      ],
      "extras": {
        "FBX-glTF-conv": {
          "skeleton": {
            "skeletonType": "LimbNode"
          }
        }
      },
      "name": "Knee_R",
      "rotation": [
        -1.0891555213277115e-08,
        -5.61702329093805e-08,
        -0.4727000892162323,
        0.8812233805656433
      ],
      "scale": [
        0.9999999403953552,
        1.0,
        1.0
      ],
      "translation": [
        0.559840977191925,
        -1.525888535525155e-07,
        -3.0924283578315226e-08
      ]
    },
    {
      "children": [
        25
      ],
      "extras": {
        "FBX-glTF-conv": {
          "skeleton": {
            "skeletonType": "LimbNode"
          }
        }
      },
      "name": "Ankle_R",
      "rotation": [
        1.9225192104954658e-08,
        5.616100029470772e-09,
        0.38834184408187866,
        0.9215154051780701
      ],
      "translation": [
        0.7638242244720459,
        -9.427485281321424e-08,
        -7.833413206981277e-08
      ]
    },
    {
      "extras": {
        "FBX-glTF-conv": {
          "skeleton": {
            "skeletonType": "LimbNode"
          }
        }
      },
      "name": "Toes1_R",
      "rotation": [
        2.9617563512829292e-08,
        -1.084435874432188e-10,
        0.6799359917640686,
        0.7332714796066284
      ],
      "scale": [
        1.0000001192092896,
        1.0,
        1.0
      ],
      "translation": [
        0.20428404211997986,
        -6.751179171260446e-08,
        -5.6196498121607874e-08
      ]
    },
    {
      "children": [
        27
      ],
      "extras": {
        "FBX-glTF-conv": {
          "skeleton": {
            "skeletonType": "LimbNode"
          }
        }
      },
      "name": "Hip_L",
      "rotation": [
        -0.6047998070716858,
        0.7963775396347046,
        -5.116070767030578e-08,
        -1.6034357841476776e-08
      ],
      "scale": [
        1.0000001192092896,
        1.0,
        1.0
      ],
      "translation": [
        -0.131143718957901,
        0.2930578291416168,
        0.5085036158561707
      ]
    },
    {
      "children": [
        28
      ],
      "extras": {
        "FBX-glTF-conv": {
          "skeleton": {
            "skeletonType": "LimbNode"
          }
        }
      },
      "name": "Knee_L",
      "rotation": [
        -5.023931493042255e-08,
        -7.506039345628324e-09,
        -0.4727000594139099,
        0.8812233805656433
      ],
      "scale": [
        0.9999998211860657,
        0.9999998211860657,
        1.0
      ],
      "translation": [
        -0.5598409175872803,
        -3.739448928286038e-08,
        2.369423235393242e-08
      ]
    },
    {
      "children": [
        29
      ],
      "extras": {
        "FBX-glTF-conv": {
          "skeleton": {
            "skeletonType": "LimbNode"
          }
        }
      },
      "name": "Ankle_L",
      "rotation": [
        4.387567997810038e-08,
        -4.496038386037071e-08,
        0.3883412778377533,
        0.9215156435966492
      ],
      "scale": [
        0.9999999403953552,
        1.0,
        1.0
      ],
      "translation": [
        -0.7638245224952698,
        2.102975003026586e-07,
        6.131076446536099e-08
      ]
    },
    {
      "extras": {
        "FBX-glTF-conv": {
          "skeleton": {
            "skeletonType": "LimbNode"
          }
        }
      },
      "name": "Toes1_L",
      "rotation": [
        4.018094656998983e-08,
        7.528986145644012e-08,
        0.6799362897872925,
        0.7332712411880493
      ],
      "scale": [
        1.0000001192092896,
        1.0,
        1.0
      ],
      "translation": [
        -0.20428401231765747,
        -2.497659465916513e-07,
        -1.9805925788318746e-08
      ]
    }
  ],
  "scenes": [
    {
      "name": "Scene",
      "nodes": [
        0
      ]
    }
  ],
  "skins": [
    {
      "inverseBindMatrices": 8,
      "joints": [
        3,
        4,
        5,
        6,
        7,
        8,
        9,
        10,
        11,
        12,
        13,
        14,
        15,
        16,
        17,
        18,
        19,
        20,
        21,
        22,
        23,
        24,
        25,
        26,
        27,
        28,
        29
      ]
    }
  ]
}